<svg width="32" height="32" viewBox="0 0 32 32" fill="none" xmlns="http://www.w3.org/2000/svg"><path d="M32 15.9904C31.9832 13.4471 29.9905 11.3781 27.4809 11.2432C28.2923 10.3396 28.7026 9.20001 28.7026 8.05704C28.6902 6.8455 28.2373 5.60924 27.3078 4.6798C25.4973 2.89285 22.6258 2.8389 20.7557 4.51909C20.6905 3.30643 20.1746 2.21066 19.3666 1.40147C18.5012 0.552945 17.3065 0 15.9916 0C13.4483 0.0168581 11.3792 2.00948 11.2443 4.51909C10.3407 3.70765 9.20115 3.29744 8.05817 3.29744C6.84663 3.3098 5.61037 3.76272 4.6798 4.69216C2.89285 6.50272 2.83891 9.37421 4.5191 11.2443C2.00949 11.3792 0.0168581 13.4471 0 15.9916C0 17.3065 0.554079 18.5012 1.40148 19.3666C2.20954 20.1746 3.30644 20.6905 4.5191 20.7557C2.84003 22.6258 2.89285 25.4973 4.6798 27.3078C5.61037 28.2384 6.84551 28.6913 8.05704 28.7026C9.20002 28.7026 10.3396 28.2912 11.2432 27.4809C11.3781 29.9905 13.446 31.9831 15.9905 32C17.3054 32 18.5001 31.4459 19.3654 30.5985C20.1735 29.7905 20.6894 28.6936 20.7545 27.4809C22.6247 29.1611 25.4962 29.1072 27.3067 27.3202C28.2373 26.3896 28.6902 25.1545 28.7014 23.943C28.7014 22.8 28.2901 21.6604 27.4798 20.7568C28.6924 20.6916 29.7893 20.1757 30.5974 19.3677C31.4459 18.5023 31.9989 17.3076 31.9989 15.9927L32 15.9904Z" fill="#FFE201" class="flower"/><g class="book-icon"><path fill-rule="evenodd" clip-rule="evenodd" d="M20.6667 11.3335C20.6667 10.9653 20.3682 10.6668 20 10.6668L12 10.6668C11.6318 10.6668 11.3333 10.9653 11.3333 11.3335L11.3333 20.6668C11.3333 21.035 11.6318 21.3335 12 21.3335L20 21.3335C20.3682 21.3335 20.6667 21.035 20.6667 20.6668L20.6667 11.3335ZM20 9.3335C21.1046 9.3335 22 10.2289 22 11.3335L22 20.6668C22 21.7714 21.1046 22.6668 20 22.6668L12 22.6668C10.8954 22.6668 10 21.7714 10 20.6668L10 11.3335C10 10.2289 10.8954 9.3335 12 9.3335L20 9.3335Z" fill="black"/><path fill-rule="evenodd" clip-rule="evenodd" d="M12 14.0002C12 13.632 12.2985 13.3335 12.6667 13.3335H19.3333C19.7015 13.3335 20 13.632 20 14.0002C20 14.3684 19.7015 14.6668 19.3333 14.6668H12.6667C12.2985 14.6668 12 14.3684 12 14.0002Z" fill="black"/><path fill-rule="evenodd" clip-rule="evenodd" d="M12 12.0002C12 11.632 12.2985 11.3335 12.6667 11.3335H15.3333C15.7015 11.3335 16 11.632 16 12.0002C16 12.3684 15.7015 12.6668 15.3333 12.6668H12.6667C12.2985 12.6668 12 12.3684 12 12.0002Z" fill="black"/><path fill-rule="evenodd" clip-rule="evenodd" d="M18 19.3332C18.3682 19.3332 18.6667 19.0347 18.6667 18.6665V17.3332C18.6667 16.965 18.3682 16.6665 18 16.6665H14C13.6318 16.6665 13.3333 16.965 13.3333 17.3332V18.6665C13.3333 19.0347 13.6318 19.3332 14 19.3332H18ZM20 18.6665C20 19.7711 19.1046 20.6665 18 20.6665H14C12.8954 20.6665 12 19.7711 12 18.6665V17.3332C12 16.2286 12.8954 15.3332 14 15.3332H18C19.1046 15.3332 20 16.2286 20 17.3332V18.6665Z" fill="black"/></g></svg>