<svg width="205" height="74" viewBox="0 0 205 74" fill="none" xmlns="http://www.w3.org/2000/svg">
<rect width="205" height="74" rx="10.4131" fill="white"/>
<path d="M14.8776 23V12.9025H17.0125V17.0687H21.3463V12.9025H23.4763V23H21.3463V18.8289H17.0125V23H14.8776ZM28.2022 23.1479C27.4363 23.1479 26.774 22.9852 26.2152 22.6598C25.6597 22.3311 25.2308 21.8742 24.9284 21.2891C24.626 20.7008 24.4748 20.0187 24.4748 19.243C24.4748 18.4607 24.626 17.777 24.9284 17.192C25.2308 16.6036 25.6597 16.1467 26.2152 15.8213C26.774 15.4926 27.4363 15.3283 28.2022 15.3283C28.968 15.3283 29.6287 15.4926 30.1842 15.8213C30.743 16.1467 31.1736 16.6036 31.476 17.192C31.7784 17.777 31.9296 18.4607 31.9296 19.243C31.9296 20.0187 31.7784 20.7008 31.476 21.2891C31.1736 21.8742 30.743 22.3311 30.1842 22.6598C29.6287 22.9852 28.968 23.1479 28.2022 23.1479ZM28.2121 21.5209C28.5605 21.5209 28.8514 21.4223 29.0847 21.225C29.3181 21.0245 29.494 20.7517 29.6123 20.4066C29.7339 20.0615 29.7947 19.6687 29.7947 19.2282C29.7947 18.7878 29.7339 18.395 29.6123 18.0499C29.494 17.7047 29.3181 17.4319 29.0847 17.2314C28.8514 17.0309 28.5605 16.9306 28.2121 16.9306C27.8603 16.9306 27.5645 17.0309 27.3246 17.2314C27.0879 17.4319 26.9088 17.7047 26.7872 18.0499C26.6688 18.395 26.6097 18.7878 26.6097 19.2282C26.6097 19.6687 26.6688 20.0615 26.7872 20.4066C26.9088 20.7517 27.0879 21.0245 27.3246 21.225C27.5645 21.4223 27.8603 21.5209 28.2121 21.5209ZM37.7353 19.7755V15.4269H39.8356V23H37.8191V21.6244H37.7402C37.5693 22.0681 37.285 22.4248 36.8872 22.6943C36.4928 22.9638 36.0113 23.0986 35.4426 23.0986C34.9364 23.0986 34.491 22.9836 34.1065 22.7535C33.7219 22.5234 33.4211 22.1963 33.2042 21.7723C32.9906 21.3483 32.8821 20.8405 32.8788 20.2488V15.4269H34.9792V19.8741C34.9824 20.3211 35.1024 20.6745 35.3391 20.9342C35.5757 21.1938 35.8929 21.3237 36.2907 21.3237C36.5437 21.3237 36.7804 21.2661 37.0006 21.1511C37.2209 21.0328 37.3984 20.8586 37.5331 20.6285C37.6712 20.3984 37.7386 20.1141 37.7353 19.7755ZM47.4002 17.5864L45.4774 17.7047C45.4445 17.5404 45.3738 17.3925 45.2654 17.261C45.1569 17.1262 45.0139 17.0194 44.8364 16.9405C44.6622 16.8583 44.4535 16.8172 44.2102 16.8172C43.8848 16.8172 43.6104 16.8863 43.3869 17.0243C43.1634 17.1591 43.0516 17.3399 43.0516 17.5667C43.0516 17.7475 43.1239 17.9003 43.2685 18.0252C43.4132 18.1501 43.6613 18.2504 44.013 18.326L45.3837 18.6021C46.12 18.7533 46.6689 18.9965 47.0304 19.3318C47.392 19.667 47.5728 20.1075 47.5728 20.6531C47.5728 21.1494 47.4265 21.585 47.134 21.9597C46.8447 22.3344 46.447 22.6269 45.9408 22.8373C45.4379 23.0444 44.8578 23.1479 44.2004 23.1479C43.1979 23.1479 42.3991 22.9392 41.8042 22.5217C41.2125 22.101 40.8658 21.5291 40.7639 20.806L42.8297 20.6975C42.8922 21.0032 43.0434 21.2366 43.2833 21.3976C43.5233 21.5554 43.8306 21.6343 44.2053 21.6343C44.5735 21.6343 44.8693 21.5636 45.0928 21.4223C45.3196 21.2776 45.4346 21.0919 45.4379 20.8651C45.4346 20.6745 45.3541 20.5184 45.1963 20.3967C45.0386 20.2718 44.7953 20.1765 44.4666 20.1108L43.1551 19.8495C42.4156 19.7015 41.865 19.4452 41.5034 19.0803C41.1452 18.7155 40.966 18.2504 40.966 17.685C40.966 17.1985 41.0975 16.7794 41.3605 16.4277C41.6267 16.076 41.9998 15.8049 42.4797 15.6142C42.9628 15.4236 43.5282 15.3283 44.1757 15.3283C45.1322 15.3283 45.8849 15.5304 46.4339 15.9347C46.9861 16.339 47.3082 16.8896 47.4002 17.5864ZM51.9302 23.1479C51.1511 23.1479 50.4806 22.9901 49.9185 22.6746C49.3598 22.3558 48.9292 21.9054 48.6268 21.3237C48.3244 20.7386 48.1732 20.0467 48.1732 19.2479C48.1732 18.4689 48.3244 17.7853 48.6268 17.1969C48.9292 16.6085 49.3548 16.15 49.9038 15.8213C50.456 15.4926 51.1035 15.3283 51.8463 15.3283C52.346 15.3283 52.8111 15.4088 53.2416 15.5698C53.6755 15.7276 54.0535 15.9659 54.3756 16.2848C54.7011 16.6036 54.9542 17.0046 55.1349 17.4878C55.3157 17.9677 55.4061 18.5297 55.4061 19.174V19.7508H49.0113V18.4492H53.429C53.429 18.1468 53.3633 17.8789 53.2318 17.6456C53.1003 17.4122 52.9179 17.2298 52.6845 17.0983C52.4544 16.9635 52.1865 16.8961 51.8809 16.8961C51.562 16.8961 51.2793 16.9701 51.0328 17.118C50.7896 17.2626 50.5989 17.4582 50.4609 17.7047C50.3228 17.948 50.2522 18.2191 50.2489 18.5182V19.7558C50.2489 20.1305 50.3179 20.4543 50.456 20.7271C50.5973 20.9999 50.7962 21.2103 51.0525 21.3582C51.3089 21.5061 51.613 21.58 51.9647 21.58C52.198 21.58 52.4117 21.5472 52.6056 21.4814C52.7996 21.4157 52.9655 21.3171 53.1036 21.1856C53.2416 21.0541 53.3468 20.8931 53.4191 20.7024L55.3617 20.8306C55.2631 21.2974 55.061 21.7049 54.7553 22.0534C54.4529 22.3985 54.0617 22.668 53.5818 22.8619C53.1052 23.0526 52.5547 23.1479 51.9302 23.1479ZM56.3997 12.9025H59.0325L61.8133 19.6868H61.9316L64.7124 12.9025H67.3452V23H65.2745V16.4277H65.1906L62.5775 22.9507H61.1674L58.5543 16.4031H58.4705V23H56.3997V12.9025ZM72.0699 23.1479C71.304 23.1479 70.6417 22.9852 70.0829 22.6598C69.5275 22.3311 69.0985 21.8742 68.7961 21.2891C68.4937 20.7008 68.3425 20.0187 68.3425 19.243C68.3425 18.4607 68.4937 17.777 68.7961 17.192C69.0985 16.6036 69.5275 16.1467 70.0829 15.8213C70.6417 15.4926 71.304 15.3283 72.0699 15.3283C72.8358 15.3283 73.4964 15.4926 74.0519 15.8213C74.6107 16.1467 75.0413 16.6036 75.3437 17.192C75.6461 17.777 75.7973 18.4607 75.7973 19.243C75.7973 20.0187 75.6461 20.7008 75.3437 21.2891C75.0413 21.8742 74.6107 22.3311 74.0519 22.6598C73.4964 22.9852 72.8358 23.1479 72.0699 23.1479ZM72.0798 21.5209C72.4282 21.5209 72.7191 21.4223 72.9525 21.225C73.1858 21.0245 73.3617 20.7517 73.48 20.4066C73.6016 20.0615 73.6624 19.6687 73.6624 19.2282C73.6624 18.7878 73.6016 18.395 73.48 18.0499C73.3617 17.7047 73.1858 17.4319 72.9525 17.2314C72.7191 17.0309 72.4282 16.9306 72.0798 16.9306C71.7281 16.9306 71.4322 17.0309 71.1923 17.2314C70.9556 17.4319 70.7765 17.7047 70.6549 18.0499C70.5365 18.395 70.4774 18.7878 70.4774 19.2282C70.4774 19.6687 70.5365 20.0615 70.6549 20.4066C70.7765 20.7517 70.9556 21.0245 71.1923 21.225C71.4322 21.4223 71.7281 21.5209 72.0798 21.5209ZM78.8469 18.6218V23H76.7465V15.4269H78.7483V16.763H78.837C79.0047 16.3226 79.2857 15.9741 79.6801 15.7178C80.0746 15.4581 80.5528 15.3283 81.1149 15.3283C81.6408 15.3283 82.0993 15.4433 82.4905 15.6734C82.8816 15.9035 83.1857 16.2322 83.4026 16.6595C83.6195 17.0835 83.728 17.5897 83.728 18.178V23H81.6276V18.5528C81.6309 18.0893 81.5126 17.7277 81.2726 17.4681C81.0327 17.2051 80.7024 17.0736 80.2816 17.0736C79.999 17.0736 79.7491 17.1344 79.5322 17.2561C79.3186 17.3777 79.1509 17.5552 79.0293 17.7885C78.911 18.0186 78.8502 18.2964 78.8469 18.6218ZM88.4182 23.1479C87.6392 23.1479 86.9686 22.9901 86.4065 22.6746C85.8478 22.3558 85.4172 21.9054 85.1148 21.3237C84.8124 20.7386 84.6612 20.0467 84.6612 19.2479C84.6612 18.4689 84.8124 17.7853 85.1148 17.1969C85.4172 16.6085 85.8428 16.15 86.3918 15.8213C86.944 15.4926 87.5915 15.3283 88.3343 15.3283C88.834 15.3283 89.2991 15.4088 89.7297 15.5698C90.1635 15.7276 90.5415 15.9659 90.8637 16.2848C91.1891 16.6036 91.4422 17.0046 91.6229 17.4878C91.8037 17.9677 91.8941 18.5297 91.8941 19.174V19.7508H85.4994V18.4492H89.917C89.917 18.1468 89.8513 17.8789 89.7198 17.6456C89.5883 17.4122 89.4059 17.2298 89.1725 17.0983C88.9424 16.9635 88.6745 16.8961 88.3689 16.8961C88.05 16.8961 87.7673 16.9701 87.5208 17.118C87.2776 17.2626 87.0869 17.4582 86.9489 17.7047C86.8108 17.948 86.7402 18.2191 86.7369 18.5182V19.7558C86.7369 20.1305 86.8059 20.4543 86.944 20.7271C87.0853 20.9999 87.2842 21.2103 87.5405 21.3582C87.7969 21.5061 88.101 21.58 88.4527 21.58C88.686 21.58 88.8997 21.5472 89.0936 21.4814C89.2876 21.4157 89.4536 21.3171 89.5916 21.1856C89.7297 21.0541 89.8348 20.8931 89.9072 20.7024L91.8497 20.8306C91.7511 21.2974 91.549 21.7049 91.2433 22.0534C90.9409 22.3985 90.5498 22.668 90.0699 22.8619C89.5932 23.0526 89.0427 23.1479 88.4182 23.1479ZM93.9416 25.8399C93.6753 25.8399 93.4255 25.8186 93.1921 25.7758C92.9621 25.7364 92.7714 25.6854 92.6202 25.623L93.0935 24.0551C93.3401 24.1307 93.5619 24.1718 93.7591 24.1784C93.9596 24.1849 94.1322 24.1389 94.2768 24.0403C94.4247 23.9417 94.5447 23.7741 94.6368 23.5374L94.76 23.2169L92.0434 15.4269H94.2522L95.8201 20.9884H95.8989L97.4816 15.4269H99.7052L96.7618 23.8185C96.6204 24.226 96.4281 24.581 96.1849 24.8834C95.945 25.1891 95.6409 25.4241 95.2728 25.5885C94.9046 25.7561 94.4609 25.8399 93.9416 25.8399Z" fill="#FF4E00"/>
<path d="M25.8466 37.6136V38.75H14.2557V37.6136H25.8466ZM25.8466 40.0682V41.2045H14.2557V40.0682H25.8466ZM24.9205 33.3636V45H22.7955L17.7386 37.6761H17.6477V45H15.1932V33.3636H17.3466L22.375 40.6818H22.4716V33.3636H24.9205ZM30.8226 45.1591C30.0195 45.1591 29.3036 45.0114 28.6748 44.7159C28.0498 44.4205 27.5536 44.0133 27.1862 43.4943C26.8188 42.9754 26.6275 42.3807 26.6123 41.7102H28.9987C29.0252 42.161 29.2146 42.5265 29.5669 42.8068C29.9191 43.0871 30.3377 43.2273 30.8226 43.2273C31.2089 43.2273 31.5498 43.142 31.8453 42.9716C32.1445 42.7973 32.3775 42.5568 32.5441 42.25C32.7146 41.9394 32.7998 41.5833 32.7998 41.1818C32.7998 40.7727 32.7127 40.4129 32.5385 40.1023C32.368 39.7917 32.1313 39.5492 31.8282 39.375C31.5252 39.2008 31.1786 39.1117 30.7885 39.108C30.4476 39.108 30.1161 39.178 29.7941 39.3182C29.476 39.4583 29.2279 39.6496 29.0498 39.892L26.8623 39.5L27.4135 33.3636H34.5271V35.375H29.4419L29.1407 38.2898H29.2089C29.4135 38.0019 29.7222 37.7633 30.1351 37.5739C30.5479 37.3845 31.0101 37.2898 31.5214 37.2898C32.2222 37.2898 32.8472 37.4545 33.3964 37.7841C33.9457 38.1136 34.3794 38.5663 34.6976 39.142C35.0157 39.714 35.1729 40.3731 35.1691 41.1193C35.1729 41.9034 34.9911 42.6004 34.6237 43.2102C34.2601 43.8163 33.7506 44.2936 33.0953 44.642C32.4438 44.9867 31.6862 45.1591 30.8226 45.1591ZM38.6835 43.4091L38.621 44.0341C38.5717 44.5341 38.477 45.0322 38.3369 45.5284C38.2005 46.0284 38.0566 46.4811 37.9051 46.8864C37.7573 47.2917 37.638 47.6098 37.5471 47.8409H35.9789C36.0357 47.6174 36.1134 47.3049 36.2119 46.9034C36.3104 46.5057 36.4032 46.0587 36.4903 45.5625C36.5774 45.0663 36.6323 44.5606 36.6551 44.0455L36.6835 43.4091H38.6835ZM40.4165 45L45.2404 35.4545V35.375H39.6211V33.3636H47.7859V35.4034L42.9563 45H40.4165ZM47.8783 42.9545V41.017L52.7363 33.3636H54.4067V36.0455H53.4181L50.3556 40.892V40.983H57.259V42.9545H47.8783ZM53.4635 45V42.3636L53.509 41.5057V33.3636H55.8158V45H53.4635ZM62.6682 45.1591C61.8652 45.1591 61.1492 45.0114 60.5205 44.7159C59.8955 44.4205 59.3992 44.0133 59.0318 43.4943C58.6644 42.9754 58.4731 42.3807 58.458 41.7102H60.8443C60.8708 42.161 61.0602 42.5265 61.4125 42.8068C61.7648 43.0871 62.1833 43.2273 62.6682 43.2273C63.0545 43.2273 63.3955 43.142 63.6909 42.9716C63.9902 42.7973 64.2231 42.5568 64.3898 42.25C64.5602 41.9394 64.6455 41.5833 64.6455 41.1818C64.6455 40.7727 64.5583 40.4129 64.3841 40.1023C64.2136 39.7917 63.9769 39.5492 63.6739 39.375C63.3708 39.2008 63.0242 39.1117 62.6341 39.108C62.2932 39.108 61.9617 39.178 61.6398 39.3182C61.3216 39.4583 61.0735 39.6496 60.8955 39.892L58.708 39.5L59.2591 33.3636H66.3727V35.375H61.2875L60.9864 38.2898H61.0545C61.2591 38.0019 61.5678 37.7633 61.9807 37.5739C62.3936 37.3845 62.8557 37.2898 63.367 37.2898C64.0678 37.2898 64.6928 37.4545 65.242 37.7841C65.7913 38.1136 66.225 38.5663 66.5432 39.142C66.8614 39.714 67.0186 40.3731 67.0148 41.1193C67.0186 41.9034 66.8367 42.6004 66.4693 43.2102C66.1057 43.8163 65.5962 44.2936 64.9409 44.642C64.2894 44.9867 63.5318 45.1591 62.6682 45.1591ZM70.5291 43.4091L70.4666 44.0341C70.4173 44.5341 70.3227 45.0322 70.1825 45.5284C70.0461 46.0284 69.9022 46.4811 69.7507 46.8864C69.603 47.2917 69.4836 47.6098 69.3927 47.8409H67.8245C67.8814 47.6174 67.959 47.3049 68.0575 46.9034C68.156 46.5057 68.2488 46.0587 68.3359 45.5625C68.423 45.0663 68.478 44.5606 68.5007 44.0455L68.5291 43.4091H70.5291ZM76.3332 45.2557C75.3559 45.2519 74.515 45.0114 73.8105 44.5341C73.1097 44.0568 72.5699 43.3655 72.1911 42.4602C71.8161 41.5549 71.6305 40.4659 71.6343 39.1932C71.6343 37.9242 71.8218 36.8428 72.1968 35.9489C72.5756 35.0549 73.1154 34.375 73.8161 33.9091C74.5207 33.4394 75.3597 33.2045 76.3332 33.2045C77.3067 33.2045 78.1438 33.4394 78.8445 33.9091C79.5491 34.3788 80.0908 35.0606 80.4695 35.9545C80.8483 36.8447 81.0358 37.9242 81.032 39.1932C81.032 40.4697 80.8427 41.5606 80.4639 42.4659C80.0889 43.3712 79.551 44.0625 78.8502 44.5398C78.1495 45.017 77.3105 45.2557 76.3332 45.2557ZM76.3332 43.2159C76.9998 43.2159 77.532 42.8807 77.9298 42.2102C78.3275 41.5398 78.5245 40.5341 78.5207 39.1932C78.5207 38.3106 78.4298 37.5758 78.248 36.9886C78.0699 36.4015 77.8161 35.9602 77.4866 35.6648C77.1608 35.3693 76.7764 35.2216 76.3332 35.2216C75.6703 35.2216 75.14 35.553 74.7423 36.2159C74.3445 36.8788 74.1438 37.8712 74.14 39.1932C74.14 40.0871 74.229 40.8333 74.407 41.4318C74.5889 42.0265 74.8445 42.4735 75.1741 42.7727C75.5036 43.0682 75.89 43.2159 76.3332 43.2159ZM86.8688 45.2557C85.8915 45.2519 85.0506 45.0114 84.3461 44.5341C83.6453 44.0568 83.1056 43.3655 82.7268 42.4602C82.3518 41.5549 82.1662 40.4659 82.1699 39.1932C82.1699 37.9242 82.3574 36.8428 82.7324 35.9489C83.1112 35.0549 83.651 34.375 84.3518 33.9091C85.0563 33.4394 85.8953 33.2045 86.8688 33.2045C87.8423 33.2045 88.6794 33.4394 89.3802 33.9091C90.0847 34.3788 90.6264 35.0606 91.0052 35.9545C91.384 36.8447 91.5715 37.9242 91.5677 39.1932C91.5677 40.4697 91.3783 41.5606 90.9995 42.4659C90.6245 43.3712 90.0866 44.0625 89.3859 44.5398C88.6851 45.017 87.8461 45.2557 86.8688 45.2557ZM86.8688 43.2159C87.5355 43.2159 88.0677 42.8807 88.4654 42.2102C88.8631 41.5398 89.0601 40.5341 89.0563 39.1932C89.0563 38.3106 88.9654 37.5758 88.7836 36.9886C88.6056 36.4015 88.3518 35.9602 88.0222 35.6648C87.6965 35.3693 87.312 35.2216 86.8688 35.2216C86.2059 35.2216 85.6756 35.553 85.2779 36.2159C84.8802 36.8788 84.6794 37.8712 84.6756 39.1932C84.6756 40.0871 84.7646 40.8333 84.9427 41.4318C85.1245 42.0265 85.3802 42.4735 85.7097 42.7727C86.0393 43.0682 86.4256 43.2159 86.8688 43.2159ZM97.4044 45.2557C96.4272 45.2519 95.5863 45.0114 94.8817 44.5341C94.1809 44.0568 93.6412 43.3655 93.2624 42.4602C92.8874 41.5549 92.7018 40.4659 92.7056 39.1932C92.7056 37.9242 92.8931 36.8428 93.2681 35.9489C93.6469 35.0549 94.1866 34.375 94.8874 33.9091C95.5919 33.4394 96.4309 33.2045 97.4044 33.2045C98.3779 33.2045 99.215 33.4394 99.9158 33.9091C100.62 34.3788 101.162 35.0606 101.541 35.9545C101.92 36.8447 102.107 37.9242 102.103 39.1932C102.103 40.4697 101.914 41.5606 101.535 42.4659C101.16 43.3712 100.622 44.0625 99.9215 44.5398C99.2207 45.017 98.3817 45.2557 97.4044 45.2557ZM97.4044 43.2159C98.0711 43.2159 98.6033 42.8807 99.001 42.2102C99.3988 41.5398 99.5957 40.5341 99.5919 39.1932C99.5919 38.3106 99.501 37.5758 99.3192 36.9886C99.1412 36.4015 98.8874 35.9602 98.5578 35.6648C98.2321 35.3693 97.8476 35.2216 97.4044 35.2216C96.7416 35.2216 96.2113 35.553 95.8135 36.2159C95.4158 36.8788 95.215 37.8712 95.2113 39.1932C95.2113 40.0871 95.3003 40.8333 95.4783 41.4318C95.6601 42.0265 95.9158 42.4735 96.2453 42.7727C96.5749 43.0682 96.9613 43.2159 97.4044 43.2159Z" fill="#122231"/>
<path d="M17.4588 55.7273V63H16.358V56.8281H16.3153L14.5753 57.9645V56.9134L16.3899 55.7273H17.4588ZM18.9734 61.5795V60.6918L22.1162 55.7273H22.8158V57.0341H22.3719L20.124 60.5923V60.6491H24.4315V61.5795H18.9734ZM22.4216 63V61.3097L22.4287 60.9048V55.7273H23.4692V63H22.4216ZM29.1653 61.6364V61.2528C29.1653 60.9782 29.2221 60.7273 29.3357 60.5C29.4517 60.2704 29.6198 60.0869 29.84 59.9496C30.0625 59.8099 30.3312 59.7401 30.6461 59.7401C30.9681 59.7401 31.2379 59.8087 31.4558 59.946C31.6736 60.0833 31.8381 60.2668 31.9494 60.4964C32.063 60.7261 32.1198 60.9782 32.1198 61.2528V61.6364C32.1198 61.911 32.063 62.1631 31.9494 62.3928C31.8357 62.62 31.6688 62.8035 31.4487 62.9432C31.2308 63.0805 30.9633 63.1491 30.6461 63.1491C30.3265 63.1491 30.0566 63.0805 29.8364 62.9432C29.6163 62.8035 29.4494 62.62 29.3357 62.3928C29.2221 62.1631 29.1653 61.911 29.1653 61.6364ZM29.9927 61.2528V61.6364C29.9927 61.84 30.0412 62.0246 30.1383 62.1903C30.2353 62.3561 30.4046 62.4389 30.6461 62.4389C30.8852 62.4389 31.0521 62.3561 31.1468 62.1903C31.2415 62.0246 31.2888 61.84 31.2888 61.6364V61.2528C31.2888 61.0492 31.2427 60.8646 31.1504 60.6989C31.0604 60.5331 30.8923 60.4503 30.6461 60.4503C30.4094 60.4503 30.2413 60.5331 30.1418 60.6989C30.0424 60.8646 29.9927 61.0492 29.9927 61.2528ZM25.5076 57.4744V57.0909C25.5076 56.8163 25.5644 56.5642 25.6781 56.3345C25.7941 56.1049 25.9621 55.9214 26.1823 55.7841C26.4049 55.6468 26.6736 55.5781 26.9884 55.5781C27.3104 55.5781 27.5803 55.6468 27.7981 55.7841C28.0159 55.9214 28.1804 56.1049 28.2917 56.3345C28.403 56.5642 28.4586 56.8163 28.4586 57.0909V57.4744C28.4586 57.7491 28.4018 58.0012 28.2881 58.2308C28.1769 58.4581 28.0112 58.6416 27.791 58.7812C27.5732 58.9186 27.3057 58.9872 26.9884 58.9872C26.6665 58.9872 26.3954 58.9186 26.1752 58.7812C25.9574 58.6416 25.7917 58.4581 25.6781 58.2308C25.5644 58.0012 25.5076 57.7491 25.5076 57.4744ZM26.3386 57.0909V57.4744C26.3386 57.678 26.3859 57.8627 26.4806 58.0284C26.5777 58.1941 26.7469 58.277 26.9884 58.277C27.2252 58.277 27.3909 58.1941 27.4856 58.0284C27.5826 57.8627 27.6312 57.678 27.6312 57.4744V57.0909C27.6312 56.8873 27.585 56.7027 27.4927 56.5369C27.4004 56.3712 27.2323 56.2884 26.9884 56.2884C26.7517 56.2884 26.5836 56.3712 26.4842 56.5369C26.3871 56.7027 26.3386 56.8873 26.3386 57.0909ZM25.845 63L30.845 55.7273H31.6937L26.6937 63H25.845ZM35.711 63V57.5455H36.7728V63H35.711ZM36.2473 56.7038C36.0626 56.7038 35.904 56.6423 35.7714 56.5192C35.6412 56.3937 35.5761 56.2446 35.5761 56.0717C35.5761 55.8965 35.6412 55.7474 35.7714 55.6243C35.904 55.4988 36.0626 55.4361 36.2473 55.4361C36.4319 55.4361 36.5894 55.4988 36.7196 55.6243C36.8521 55.7474 36.9184 55.8965 36.9184 56.0717C36.9184 56.2446 36.8521 56.3937 36.7196 56.5192C36.5894 56.6423 36.4319 56.7038 36.2473 56.7038ZM38.9631 59.7614V63H37.9013V57.5455H38.9205V58.4332H38.9879C39.1134 58.1444 39.3099 57.9124 39.5774 57.7372C39.8473 57.562 40.187 57.4744 40.5966 57.4744C40.9683 57.4744 41.2938 57.5526 41.5732 57.7088C41.8525 57.8627 42.0691 58.0923 42.223 58.3977C42.3769 58.7031 42.4538 59.0807 42.4538 59.5305V63H41.392V59.6584C41.392 59.263 41.2891 58.9541 41.0831 58.7315C40.8771 58.5066 40.5942 58.3942 40.2344 58.3942C39.9882 58.3942 39.7692 58.4474 39.5774 58.554C39.388 58.6605 39.2377 58.8168 39.1264 59.0227C39.0175 59.2263 38.9631 59.4725 38.9631 59.7614ZM46.124 57.5455V58.3977H43.1446V57.5455H46.124ZM43.9436 56.2386H45.0054V61.3984C45.0054 61.6044 45.0362 61.7595 45.0977 61.8636C45.1593 61.9654 45.2386 62.0353 45.3357 62.0732C45.4351 62.1087 45.5428 62.1264 45.6588 62.1264C45.744 62.1264 45.8186 62.1205 45.8825 62.1087C45.9464 62.0968 45.9962 62.0874 46.0317 62.0803L46.2234 62.9574C46.1619 62.9811 46.0743 63.0047 45.9607 63.0284C45.847 63.0545 45.705 63.0687 45.5345 63.071C45.2552 63.0758 44.9947 63.026 44.7533 62.9219C44.5118 62.8177 44.3165 62.6567 44.1673 62.4389C44.0182 62.2211 43.9436 61.9477 43.9436 61.6186V56.2386ZM49.2908 63.1101C48.7534 63.1101 48.2906 62.9953 47.9023 62.7656C47.5164 62.5336 47.2181 62.2081 47.0074 61.7891C46.7991 61.3677 46.6949 60.8741 46.6949 60.3082C46.6949 59.7495 46.7991 59.2571 47.0074 58.831C47.2181 58.4048 47.5117 58.0722 47.8881 57.8331C48.2669 57.594 48.7096 57.4744 49.2162 57.4744C49.524 57.4744 49.8223 57.5253 50.1111 57.6271C50.3999 57.7289 50.6592 57.8887 50.8888 58.1065C51.1185 58.3243 51.2996 58.6072 51.4321 58.9553C51.5647 59.3009 51.631 59.7211 51.631 60.2159V60.5923H47.2951V59.7969H50.5905C50.5905 59.5175 50.5337 59.2701 50.4201 59.0547C50.3064 58.8369 50.1466 58.6652 49.9407 58.5398C49.7371 58.4143 49.498 58.3516 49.2233 58.3516C48.925 58.3516 48.6646 58.425 48.4421 58.5717C48.2219 58.7161 48.0515 58.9055 47.9307 59.1399C47.8123 59.3719 47.7532 59.6241 47.7532 59.8963V60.5178C47.7532 60.8823 47.8171 61.1925 47.9449 61.4482C48.0751 61.7038 48.2562 61.8991 48.4882 62.0341C48.7203 62.1667 48.9913 62.233 49.3015 62.233C49.5027 62.233 49.6862 62.2045 49.8519 62.1477C50.0176 62.0885 50.1608 62.0009 50.2816 61.8849C50.4023 61.7689 50.4946 61.6257 50.5586 61.4553L51.5635 61.6364C51.483 61.9323 51.3386 62.1915 51.1303 62.4141C50.9243 62.6342 50.6651 62.8059 50.3526 62.929C50.0425 63.0497 49.6885 63.1101 49.2908 63.1101ZM52.5091 63V57.5455H53.5354V58.4119H53.5922C53.6916 58.1184 53.8668 57.8875 54.1178 57.7195C54.3711 57.549 54.6575 57.4638 54.9771 57.4638C55.0434 57.4638 55.1215 57.4661 55.2115 57.4709C55.3038 57.4756 55.376 57.4815 55.4281 57.4886V58.5043C55.3855 58.4924 55.3098 58.4794 55.2009 58.4652C55.0919 58.4486 54.983 58.4403 54.8741 58.4403C54.6232 58.4403 54.3995 58.4936 54.203 58.6001C54.0089 58.7043 53.855 58.8499 53.7413 59.0369C53.6277 59.2216 53.5709 59.4323 53.5709 59.669V63H52.5091ZM58.2025 63.1101C57.6651 63.1101 57.2023 62.9953 56.814 62.7656C56.4281 62.5336 56.1298 62.2081 55.9191 61.7891C55.7108 61.3677 55.6066 60.8741 55.6066 60.3082C55.6066 59.7495 55.7108 59.2571 55.9191 58.831C56.1298 58.4048 56.4234 58.0722 56.7998 57.8331C57.1786 57.594 57.6213 57.4744 58.1279 57.4744C58.4357 57.4744 58.734 57.5253 59.0228 57.6271C59.3117 57.7289 59.5709 57.8887 59.8005 58.1065C60.0302 58.3243 60.2113 58.6072 60.3439 58.9553C60.4764 59.3009 60.5427 59.7211 60.5427 60.2159V60.5923H56.2068V59.7969H59.5022C59.5022 59.5175 59.4454 59.2701 59.3318 59.0547C59.2181 58.8369 59.0583 58.6652 58.8524 58.5398C58.6488 58.4143 58.4097 58.3516 58.135 58.3516C57.8368 58.3516 57.5763 58.425 57.3538 58.5717C57.1336 58.7161 56.9632 58.9055 56.8424 59.1399C56.7241 59.3719 56.6649 59.6241 56.6649 59.8963V60.5178C56.6649 60.8823 56.7288 61.1925 56.8566 61.4482C56.9868 61.7038 57.168 61.8991 57.4 62.0341C57.632 62.1667 57.903 62.233 58.2132 62.233C58.4144 62.233 58.5979 62.2045 58.7636 62.1477C58.9293 62.0885 59.0725 62.0009 59.1933 61.8849C59.314 61.7689 59.4064 61.6257 59.4703 61.4553L60.4752 61.6364C60.3948 61.9323 60.2503 62.1915 60.042 62.4141C59.836 62.6342 59.5768 62.8059 59.2643 62.929C58.9542 63.0497 58.6002 63.1101 58.2025 63.1101ZM65.5082 58.8771L64.5458 59.0476C64.5056 58.9245 64.4416 58.8073 64.354 58.696C64.2688 58.5848 64.1528 58.4936 64.006 58.4226C63.8593 58.3516 63.6758 58.3161 63.4556 58.3161C63.1549 58.3161 62.904 58.3835 62.7028 58.5185C62.5015 58.651 62.4009 58.8227 62.4009 59.0334C62.4009 59.2157 62.4684 59.3625 62.6033 59.4737C62.7383 59.585 62.9561 59.6761 63.2567 59.7472L64.1232 59.946C64.6251 60.062 64.9992 60.2408 65.2454 60.4822C65.4916 60.7237 65.6147 61.0374 65.6147 61.4233C65.6147 61.75 65.52 62.0412 65.3306 62.2969C65.1436 62.5502 64.882 62.7491 64.5458 62.8935C64.212 63.0379 63.8249 63.1101 63.3846 63.1101C62.7738 63.1101 62.2754 62.9799 61.8896 62.7195C61.5037 62.4567 61.2669 62.0838 61.1793 61.6009L62.2056 61.4446C62.2695 61.7121 62.4009 61.9145 62.5998 62.0518C62.7987 62.1868 63.0579 62.2543 63.3775 62.2543C63.7255 62.2543 64.0037 62.1821 64.212 62.0376C64.4203 61.8909 64.5245 61.7121 64.5245 61.5014C64.5245 61.331 64.4606 61.1877 64.3327 61.0717C64.2073 60.9557 64.0143 60.8681 63.7539 60.8089L62.8306 60.6065C62.3216 60.4905 61.9452 60.3059 61.7013 60.0526C61.4599 59.7992 61.3391 59.4785 61.3391 59.0902C61.3391 58.7682 61.4291 58.4865 61.609 58.245C61.7889 58.0036 62.0375 57.8153 62.3548 57.6804C62.672 57.5431 63.0354 57.4744 63.445 57.4744C64.0344 57.4744 64.4985 57.6023 64.837 57.858C65.1755 58.1113 65.3993 58.451 65.5082 58.8771ZM69.0283 57.5455V58.3977H66.0489V57.5455H69.0283ZM66.8479 56.2386H67.9097V61.3984C67.9097 61.6044 67.9405 61.7595 68.002 61.8636C68.0636 61.9654 68.1429 62.0353 68.24 62.0732C68.3394 62.1087 68.4471 62.1264 68.5631 62.1264C68.6483 62.1264 68.7229 62.1205 68.7868 62.1087C68.8507 62.0968 68.9005 62.0874 68.936 62.0803L69.1277 62.9574C69.0662 62.9811 68.9786 63.0047 68.865 63.0284C68.7513 63.0545 68.6093 63.0687 68.4388 63.071C68.1595 63.0758 67.899 63.026 67.6576 62.9219C67.4161 62.8177 67.2208 62.6567 67.0716 62.4389C66.9225 62.2211 66.8479 61.9477 66.8479 61.6186V56.2386ZM72.2493 63V57.5455H73.2756V58.4119H73.3324C73.4319 58.1184 73.607 57.8875 73.858 57.7195C74.1113 57.549 74.3978 57.4638 74.7174 57.4638C74.7837 57.4638 74.8618 57.4661 74.9517 57.4709C75.0441 57.4756 75.1163 57.4815 75.1684 57.4886V58.5043C75.1257 58.4924 75.05 58.4794 74.9411 58.4652C74.8322 58.4486 74.7233 58.4403 74.6144 58.4403C74.3634 58.4403 74.1397 58.4936 73.9432 58.6001C73.7491 58.7043 73.5952 58.8499 73.4816 59.0369C73.3679 59.2216 73.3111 59.4323 73.3111 59.669V63H72.2493ZM77.3257 63.1207C76.9801 63.1207 76.6676 63.0568 76.3882 62.929C76.1089 62.7988 75.8875 62.6106 75.7242 62.3643C75.5632 62.1181 75.4827 61.8163 75.4827 61.4588C75.4827 61.151 75.5419 60.8977 75.6603 60.6989C75.7786 60.5 75.9384 60.3426 76.1397 60.2266C76.3409 60.1106 76.5658 60.023 76.8144 59.9638C77.063 59.9046 77.3163 59.8596 77.5743 59.8288C77.901 59.791 78.1662 59.7602 78.3698 59.7365C78.5734 59.7105 78.7213 59.669 78.8137 59.6122C78.906 59.5554 78.9522 59.4631 78.9522 59.3352V59.3104C78.9522 59.0002 78.8646 58.7599 78.6894 58.5895C78.5166 58.419 78.2585 58.3338 77.9152 58.3338C77.5578 58.3338 77.276 58.4131 77.0701 58.5717C76.8665 58.728 76.7256 58.902 76.6475 59.0938L75.6496 58.8665C75.768 58.535 75.9408 58.2675 76.1681 58.0639C76.3977 57.858 76.6617 57.7088 76.96 57.6165C77.2583 57.5218 77.572 57.4744 77.901 57.4744C78.1188 57.4744 78.3497 57.5005 78.5935 57.5526C78.8397 57.6023 79.0694 57.6946 79.2824 57.8295C79.4979 57.9645 79.6742 58.1574 79.8115 58.4084C79.9489 58.657 80.0175 58.9801 80.0175 59.3778V63H78.9806V62.2543H78.938C78.8693 62.3916 78.7663 62.5265 78.629 62.6591C78.4917 62.7917 78.3153 62.9018 78.0999 62.9893C77.8845 63.0769 77.6264 63.1207 77.3257 63.1207ZM77.5566 62.2685C77.8501 62.2685 78.1011 62.2105 78.3094 62.0945C78.5201 61.9785 78.6799 61.8269 78.7888 61.6399C78.9001 61.4505 78.9557 61.2481 78.9557 61.0327V60.3295C78.9178 60.3674 78.8444 60.4029 78.7355 60.4361C78.629 60.4669 78.5071 60.4941 78.3698 60.5178C78.2325 60.5391 78.0987 60.5592 77.9685 60.5781C77.8383 60.5947 77.7294 60.6089 77.6418 60.6207C77.4358 60.6468 77.2476 60.6906 77.0772 60.7521C76.9091 60.8137 76.7741 60.9025 76.6723 61.0185C76.5729 61.1321 76.5232 61.2836 76.5232 61.473C76.5232 61.7358 76.6203 61.9347 76.8144 62.0696C77.0085 62.2022 77.2559 62.2685 77.5566 62.2685ZM83.6779 57.5455V58.3977H80.6985V57.5455H83.6779ZM81.4975 56.2386H82.5593V61.3984C82.5593 61.6044 82.5901 61.7595 82.6516 61.8636C82.7132 61.9654 82.7925 62.0353 82.8896 62.0732C82.989 62.1087 83.0967 62.1264 83.2127 62.1264C83.2979 62.1264 83.3725 62.1205 83.4364 62.1087C83.5004 62.0968 83.5501 62.0874 83.5856 62.0803L83.7773 62.9574C83.7158 62.9811 83.6282 63.0047 83.5146 63.0284C83.4009 63.0545 83.2589 63.0687 83.0884 63.071C82.8091 63.0758 82.5487 63.026 82.3072 62.9219C82.0657 62.8177 81.8704 62.6567 81.7212 62.4389C81.5721 62.2211 81.4975 61.9477 81.4975 61.6186V56.2386ZM86.8447 63.1101C86.3073 63.1101 85.8445 62.9953 85.4562 62.7656C85.0703 62.5336 84.772 62.2081 84.5613 61.7891C84.353 61.3677 84.2488 60.8741 84.2488 60.3082C84.2488 59.7495 84.353 59.2571 84.5613 58.831C84.772 58.4048 85.0656 58.0722 85.442 57.8331C85.8208 57.594 86.2635 57.4744 86.7701 57.4744C87.0779 57.4744 87.3762 57.5253 87.665 57.6271C87.9538 57.7289 88.2131 57.8887 88.4427 58.1065C88.6724 58.3243 88.8535 58.6072 88.986 58.9553C89.1186 59.3009 89.1849 59.7211 89.1849 60.2159V60.5923H84.849V59.7969H88.1444C88.1444 59.5175 88.0876 59.2701 87.974 59.0547C87.8603 58.8369 87.7005 58.6652 87.4946 58.5398C87.291 58.4143 87.0519 58.3516 86.7772 58.3516C86.4789 58.3516 86.2185 58.425 85.996 58.5717C85.7758 58.7161 85.6054 58.9055 85.4846 59.1399C85.3662 59.3719 85.3071 59.6241 85.3071 59.8963V60.5178C85.3071 60.8823 85.371 61.1925 85.4988 61.4482C85.629 61.7038 85.8101 61.8991 86.0421 62.0341C86.2742 62.1667 86.5452 62.233 86.8554 62.233C87.0566 62.233 87.2401 62.2045 87.4058 62.1477C87.5715 62.0885 87.7147 62.0009 87.8355 61.8849C87.9562 61.7689 88.0485 61.6257 88.1125 61.4553L89.1174 61.6364C89.0369 61.9323 88.8925 62.1915 88.6842 62.4141C88.4782 62.6342 88.219 62.8059 87.9065 62.929C87.5964 63.0497 87.2424 63.1101 86.8447 63.1101Z" fill="#122231"/>
<rect x="151" y="17" width="40" height="40" rx="12" fill="#FFECE3"/>
<path d="M163 44V35C163 34.4477 163.448 34 164 34H178C178.552 34 179 34.4477 179 35V44C179 45.1046 178.105 46 177 46H165C163.895 46 163 45.1046 163 44Z" stroke="#FF4E00" stroke-width="2"/>
<circle cx="171" cy="40" r="2" stroke="#FF4E00" stroke-width="2"/>
<path d="M167 47V46C167 43.7909 168.791 42 171 42V42C173.209 42 175 43.7909 175 46V47" stroke="#FF4E00" stroke-width="2"/>
<path d="M162 34L171 29L180 34" stroke="#FF4E00" stroke-width="2" stroke-linecap="round"/>
</svg>
