<svg width="14" height="15" viewBox="0 0 14 15" fill="none" xmlns="http://www.w3.org/2000/svg">
<path d="M10.894 2.35C10.3244 1.69969 10.0104 0.864527 10.0107 0H7.43568V10.3333C7.41582 10.8925 7.17974 11.4222 6.77715 11.8108C6.37456 12.1994 5.83688 12.4166 5.27734 12.4167C4.09401 12.4167 3.11068 11.45 3.11068 10.25C3.11068 8.81667 4.49401 7.74167 5.91901 8.18333V5.55C3.04401 5.16667 0.527344 7.4 0.527344 10.25C0.527344 13.025 2.82734 15 5.26901 15C7.88568 15 10.0107 12.875 10.0107 10.25V5.00833C11.0548 5.75821 12.3085 6.16054 13.594 6.15833V3.58333C13.594 3.58333 12.0273 3.65833 10.894 2.35Z" fill="#3D4F60"/>
</svg>
