<svg width="37" height="46" viewBox="0 0 37 46" fill="none" xmlns="http://www.w3.org/2000/svg">
<path d="M25.1989 7.37555C26.7549 5.40525 27.8281 2.72006 27.5264 0C25.2722 0.104618 22.4534 1.57798 20.8285 3.50469C19.3932 5.20473 18.1045 7.99017 18.4407 10.6056C20.975 10.7974 23.574 9.31533 25.1989 7.37555Z" fill="white"/>
<path d="M30.9055 24.4632C30.8495 18.6526 35.6078 15.8236 35.8277 15.6928C33.1338 11.7173 28.9573 11.1768 27.4876 11.1332C23.9835 10.7627 20.5828 13.2604 18.7984 13.2604C16.9752 13.2604 14.2211 11.1724 11.26 11.2335C7.44127 11.2945 3.87249 13.5307 1.91571 16.9961C-2.11856 24.0709 0.889899 34.4629 4.76038 40.182C6.69993 42.9806 8.95842 46.1104 11.9195 45.997C14.8159 45.875 15.8977 44.1313 19.3932 44.1313C22.8585 44.1313 23.8757 45.997 26.8971 45.9273C30.0047 45.875 31.9615 43.1157 33.8278 40.2866C36.069 37.0784 36.9655 33.918 37 33.7568C36.9267 33.7306 30.9658 31.429 30.9055 24.4632Z" fill="white"/>
</svg>
